<svg xmlns="http://www.w3.org/2000/svg" width="25" height="24" fill="none" xmlns:v="https://vecta.io/nano"><g clip-path="url(#A)"><path d="M19.305.124H5.78A5.12 5.12 0 0 0 .662 5.241v13.525a5.12 5.12 0 0 0 5.117 5.117h13.525a5.12 5.12 0 0 0 5.118-5.117V5.241A5.12 5.12 0 0 0 19.305.124z" fill="#e14459"/><path d="M6.454 1.677c-.179 0-.351.071-.478.198a.67.67 0 0 0 .001.952c.127.126.299.197.478.197s.351-.071.478-.197a.67.67 0 0 0 .198-.476v-.001a.67.67 0 0 0-.199-.476c-.127-.126-.299-.197-.478-.197h0zm12.091 0c-.179 0-.351.071-.478.198a.67.67 0 0 0 .001.952c.127.126.299.197.478.197s.351-.071.478-.197.198-.298.198-.476v-.001a.67.67 0 0 0-.199-.476c-.127-.126-.299-.197-.478-.196h0z" fill="#c73148"/><path d="M6.427 2.257c-.235.013-.223.354-.223.354 1.262 2.458 3.587 3.664 6.268 3.664s5.025-1.223 6.286-3.678c0 0 .05-.462-.442-.302-1.293 2.143-3.465 3.411-5.842 3.415S7.927 4.457 6.632 2.309c-.084-.04-.151-.055-.205-.052zm8.544 9.556l-.718 2.139-.699-2.138h-.683l1.102 3.109h.531l.72-2.043.719 2.043h.536l1.1-3.109h-.665l-.7 2.138-.718-2.139h-.523zm-3.815.001l-1.394 3.109h.655l.269-.602.019-.046h1.448l.284.647h.673l-1.381-3.09-.012-.018h-.561zm10.093 0v3.106h.633v-3.106h-.633zm-18.159 0v3.111h.642v-1.263h1.449v1.263h.642v-3.11h-.642v1.255H3.732v-1.255H3.09zm5.704.001v1.781c0 .506-.255.776-.719.776s-.723-.277-.723-.797v-1.757H6.71v1.778c0 .875.495 1.377 1.357 1.377.87 0 1.369-.511 1.369-1.403v-1.755h-.642zm9.302.001v3.106h2.389v-.566h-1.756v-.77h1.168v-.566h-1.168v-.637h1.695v-.567h-2.328zm-6.668.784l.458 1.041.031.072h-.971l.03-.072.451-1.041z" fill="#fff"/></g><defs><clipPath id="A"><path fill="#fff" transform="translate(.5)" d="M0 0h24v24H0z"/></clipPath></defs></svg>