<svg width="48" height="48" viewBox="0 0 48 48" fill="none" xmlns="http://www.w3.org/2000/svg">
<ellipse cx="24" cy="23.9998" rx="19.2" ry="19.2" fill="url(#paint0_linear)"/>
<path fill-rule="evenodd" clip-rule="evenodd" d="M23.9999 5.5498C16.9363 5.5498 10.7986 9.51904 7.69765 15.3523L6.37317 14.6482C9.72412 8.34466 16.3599 4.0498 23.9999 4.0498C31.64 4.0498 38.2757 8.34466 41.6267 14.6482L40.3022 15.3523C37.2012 9.51904 31.0635 5.5498 23.9999 5.5498Z" fill="#FFE177"/>
<path fill-rule="evenodd" clip-rule="evenodd" d="M24 43.2C34.6039 43.2 43.2 34.6039 43.2 24C43.2 13.3961 34.6039 4.8 24 4.8C13.3961 4.8 4.8 13.3961 4.8 24C4.8 34.6039 13.3961 43.2 24 43.2ZM24 48C37.2548 48 48 37.2548 48 24C48 10.7452 37.2548 0 24 0C10.7452 0 0 10.7452 0 24C0 37.2548 10.7452 48 24 48Z" fill="#FFB624"/>
<path d="M18 31.9995H30V35.9995H18V31.9995Z" fill="#FF9F0F"/>
<path d="M21.3111 30L14 12H19.4833L23.174 22.2527C23.3849 22.8681 23.5489 23.5055 23.6661 24.1648C23.8067 24.8242 23.8887 25.4176 23.9121 25.9451H24.0527C24.123 24.7582 24.3808 23.5275 24.826 22.2527L28.5167 12H34L26.6889 30H21.3111Z" fill="#FF9F0F"/>
<defs>
<linearGradient id="paint0_linear" x1="24" y1="4.7998" x2="24" y2="43.1998" gradientUnits="userSpaceOnUse">
<stop offset="0.0260792" stop-color="#FEC941"/>
<stop offset="1" stop-color="#FEDB41"/>
</linearGradient>
</defs>
</svg>
